<?xml version="1.0" encoding="utf-8"?>
<!-- Generator: Adobe Illustrator 19.0.0, SVG Export Plug-In . SVG Version: 6.00 Build 0)  -->
<svg version="1.1" id="Ebene_1" xmlns="http://www.w3.org/2000/svg" xmlns:xlink="http://www.w3.org/1999/xlink" x="0px" y="0px"
	 viewBox="0 0 64 58.5" style="enable-background:new 0 0 64 58.5;" xml:space="preserve">
<style type="text/css">
	.st0{fill:#818a91;}
</style>
<path id="XMLID_1_" class="st0" d="M61.5,51.1c-2.5-2.5-12.3-4.9-17.2-7.4c-3.3-1.6-4.9-5.1-4.9-8.2c0-1.6,1-2.9,2-4
	c2.6-2.9,4.6-8.3,4.6-15.7C45.9,4.9,39.4,0,32,0c-7.4,0-13.9,4.9-13.9,15.8c0,7.4,2,12.8,4.6,15.7c0.9,1.1,2,2.4,2,4
	c0,3.1-1.7,6.6-4.9,8.2c-4.9,2.5-14.8,4.9-17.2,7.4C0,53.6,0,58.5,0,58.5h32h32C64,58.5,64,53.6,61.5,51.1z"/>
</svg>
